<svg xmlns="http://www.w3.org/2000/svg" xmlns:xlink="http://www.w3.org/1999/xlink" width="133" height="317" viewBox="0 0 133 317"><defs><style>.a{fill:none;}.b{clip-path:url(#a);}.c{fill:rgba(85,167,197,0.5);}</style><clipPath id="a"><rect class="a" width="133" height="317"/></clipPath></defs><g class="b"><g transform="translate(-313 -178)"><circle class="c" cx="1" cy="1" r="1" transform="translate(313 178)"/></g><g transform="translate(-301 -178)"><circle class="c" cx="1" cy="1" r="1" transform="translate(313 178)"/></g><g transform="translate(-289 -178)"><circle class="c" cx="1" cy="1" r="1" transform="translate(313 178)"/></g><g transform="translate(-277 -178)"><circle class="c" cx="1" cy="1" r="1" transform="translate(313 178)"/></g><g transform="translate(-265 -178)"><circle class="c" cx="1" cy="1" r="1" transform="translate(313 178)"/></g><g transform="translate(-253 -178)"><circle class="c" cx="1" cy="1" r="1" transform="translate(313 178)"/></g><g transform="translate(-241 -178)"><circle class="c" cx="1" cy="1" r="1" transform="translate(313 178)"/></g><g transform="translate(-229 -178)"><circle class="c" cx="1" cy="1" r="1" transform="translate(313 178)"/></g><g transform="translate(-217 -178)"><circle class="c" cx="1" cy="1" r="1" transform="translate(313 178)"/></g><g transform="translate(-205 -178)"><circle class="c" cx="1" cy="1" r="1" transform="translate(313 178)"/></g><g transform="translate(-193 -178)"><circle class="c" cx="1" cy="1" r="1" transform="translate(313 178)"/></g><g transform="translate(-181 -178)"><circle class="c" cx="1" cy="1" r="1" transform="translate(313 178)"/></g><g transform="translate(-313 -166)"><circle class="c" cx="1" cy="1" r="1" transform="translate(313 178)"/></g><g transform="translate(-301 -166)"><circle class="c" cx="1" cy="1" r="1" transform="translate(313 178)"/></g><g transform="translate(-289 -166)"><circle class="c" cx="1" cy="1" r="1" transform="translate(313 178)"/></g><g transform="translate(-277 -166)"><circle class="c" cx="1" cy="1" r="1" transform="translate(313 178)"/></g><g transform="translate(-265 -166)"><circle class="c" cx="1" cy="1" r="1" transform="translate(313 178)"/></g><g transform="translate(-253 -166)"><circle class="c" cx="1" cy="1" r="1" transform="translate(313 178)"/></g><g transform="translate(-241 -166)"><circle class="c" cx="1" cy="1" r="1" transform="translate(313 178)"/></g><g transform="translate(-229 -166)"><circle class="c" cx="1" cy="1" r="1" transform="translate(313 178)"/></g><g transform="translate(-217 -166)"><circle class="c" cx="1" cy="1" r="1" transform="translate(313 178)"/></g><g transform="translate(-205 -166)"><circle class="c" cx="1" cy="1" r="1" transform="translate(313 178)"/></g><g transform="translate(-193 -166)"><circle class="c" cx="1" cy="1" r="1" transform="translate(313 178)"/></g><g transform="translate(-181 -166)"><circle class="c" cx="1" cy="1" r="1" transform="translate(313 178)"/></g><g transform="translate(-313 -154)"><circle class="c" cx="1" cy="1" r="1" transform="translate(313 178)"/></g><g transform="translate(-301 -154)"><circle class="c" cx="1" cy="1" r="1" transform="translate(313 178)"/></g><g transform="translate(-289 -154)"><circle class="c" cx="1" cy="1" r="1" transform="translate(313 178)"/></g><g transform="translate(-277 -154)"><circle class="c" cx="1" cy="1" r="1" transform="translate(313 178)"/></g><g transform="translate(-265 -154)"><circle class="c" cx="1" cy="1" r="1" transform="translate(313 178)"/></g><g transform="translate(-253 -154)"><circle class="c" cx="1" cy="1" r="1" transform="translate(313 178)"/></g><g transform="translate(-241 -154)"><circle class="c" cx="1" cy="1" r="1" transform="translate(313 178)"/></g><g transform="translate(-229 -154)"><circle class="c" cx="1" cy="1" r="1" transform="translate(313 178)"/></g><g transform="translate(-217 -154)"><circle class="c" cx="1" cy="1" r="1" transform="translate(313 178)"/></g><g transform="translate(-205 -154)"><circle class="c" cx="1" cy="1" r="1" transform="translate(313 178)"/></g><g transform="translate(-193 -154)"><circle class="c" cx="1" cy="1" r="1" transform="translate(313 178)"/></g><g transform="translate(-181 -154)"><circle class="c" cx="1" cy="1" r="1" transform="translate(313 178)"/></g><g transform="translate(-313 -142)"><circle class="c" cx="1" cy="1" r="1" transform="translate(313 178)"/></g><g transform="translate(-301 -142)"><circle class="c" cx="1" cy="1" r="1" transform="translate(313 178)"/></g><g transform="translate(-289 -142)"><circle class="c" cx="1" cy="1" r="1" transform="translate(313 178)"/></g><g transform="translate(-277 -142)"><circle class="c" cx="1" cy="1" r="1" transform="translate(313 178)"/></g><g transform="translate(-265 -142)"><circle class="c" cx="1" cy="1" r="1" transform="translate(313 178)"/></g><g transform="translate(-253 -142)"><circle class="c" cx="1" cy="1" r="1" transform="translate(313 178)"/></g><g transform="translate(-241 -142)"><circle class="c" cx="1" cy="1" r="1" transform="translate(313 178)"/></g><g transform="translate(-229 -142)"><circle class="c" cx="1" cy="1" r="1" transform="translate(313 178)"/></g><g transform="translate(-217 -142)"><circle class="c" cx="1" cy="1" r="1" transform="translate(313 178)"/></g><g transform="translate(-205 -142)"><circle class="c" cx="1" cy="1" r="1" transform="translate(313 178)"/></g><g transform="translate(-193 -142)"><circle class="c" cx="1" cy="1" r="1" transform="translate(313 178)"/></g><g transform="translate(-181 -142)"><circle class="c" cx="1" cy="1" r="1" transform="translate(313 178)"/></g><g transform="translate(-313 -130)"><circle class="c" cx="1" cy="1" r="1" transform="translate(313 178)"/></g><g transform="translate(-301 -130)"><circle class="c" cx="1" cy="1" r="1" transform="translate(313 178)"/></g><g transform="translate(-289 -130)"><circle class="c" cx="1" cy="1" r="1" transform="translate(313 178)"/></g><g transform="translate(-277 -130)"><circle class="c" cx="1" cy="1" r="1" transform="translate(313 178)"/></g><g transform="translate(-265 -130)"><circle class="c" cx="1" cy="1" r="1" transform="translate(313 178)"/></g><g transform="translate(-253 -130)"><circle class="c" cx="1" cy="1" r="1" transform="translate(313 178)"/></g><g transform="translate(-241 -130)"><circle class="c" cx="1" cy="1" r="1" transform="translate(313 178)"/></g><g transform="translate(-229 -130)"><circle class="c" cx="1" cy="1" r="1" transform="translate(313 178)"/></g><g transform="translate(-217 -130)"><circle class="c" cx="1" cy="1" r="1" transform="translate(313 178)"/></g><g transform="translate(-205 -130)"><circle class="c" cx="1" cy="1" r="1" transform="translate(313 178)"/></g><g transform="translate(-193 -130)"><circle class="c" cx="1" cy="1" r="1" transform="translate(313 178)"/></g><g transform="translate(-181 -130)"><circle class="c" cx="1" cy="1" r="1" transform="translate(313 178)"/></g><g transform="translate(-313 -118)"><circle class="c" cx="1" cy="1" r="1" transform="translate(313 178)"/></g><g transform="translate(-301 -118)"><circle class="c" cx="1" cy="1" r="1" transform="translate(313 178)"/></g><g transform="translate(-289 -118)"><circle class="c" cx="1" cy="1" r="1" transform="translate(313 178)"/></g><g transform="translate(-277 -118)"><circle class="c" cx="1" cy="1" r="1" transform="translate(313 178)"/></g><g transform="translate(-265 -118)"><circle class="c" cx="1" cy="1" r="1" transform="translate(313 178)"/></g><g transform="translate(-253 -118)"><circle class="c" cx="1" cy="1" r="1" transform="translate(313 178)"/></g><g transform="translate(-241 -118)"><circle class="c" cx="1" cy="1" r="1" transform="translate(313 178)"/></g><g transform="translate(-229 -118)"><circle class="c" cx="1" cy="1" r="1" transform="translate(313 178)"/></g><g transform="translate(-217 -118)"><circle class="c" cx="1" cy="1" r="1" transform="translate(313 178)"/></g><g transform="translate(-205 -118)"><circle class="c" cx="1" cy="1" r="1" transform="translate(313 178)"/></g><g transform="translate(-193 -118)"><circle class="c" cx="1" cy="1" r="1" transform="translate(313 178)"/></g><g transform="translate(-181 -118)"><circle class="c" cx="1" cy="1" r="1" transform="translate(313 178)"/></g><g transform="translate(-313 -106)"><circle class="c" cx="1" cy="1" r="1" transform="translate(313 178)"/></g><g transform="translate(-301 -106)"><circle class="c" cx="1" cy="1" r="1" transform="translate(313 178)"/></g><g transform="translate(-289 -106)"><circle class="c" cx="1" cy="1" r="1" transform="translate(313 178)"/></g><g transform="translate(-277 -106)"><circle class="c" cx="1" cy="1" r="1" transform="translate(313 178)"/></g><g transform="translate(-265 -106)"><circle class="c" cx="1" cy="1" r="1" transform="translate(313 178)"/></g><g transform="translate(-253 -106)"><circle class="c" cx="1" cy="1" r="1" transform="translate(313 178)"/></g><g transform="translate(-241 -106)"><circle class="c" cx="1" cy="1" r="1" transform="translate(313 178)"/></g><g transform="translate(-229 -106)"><circle class="c" cx="1" cy="1" r="1" transform="translate(313 178)"/></g><g transform="translate(-217 -106)"><circle class="c" cx="1" cy="1" r="1" transform="translate(313 178)"/></g><g transform="translate(-205 -106)"><circle class="c" cx="1" cy="1" r="1" transform="translate(313 178)"/></g><g transform="translate(-193 -106)"><circle class="c" cx="1" cy="1" r="1" transform="translate(313 178)"/></g><g transform="translate(-181 -106)"><circle class="c" cx="1" cy="1" r="1" transform="translate(313 178)"/></g><g transform="translate(-313 -94)"><circle class="c" cx="1" cy="1" r="1" transform="translate(313 178)"/></g><g transform="translate(-301 -94)"><circle class="c" cx="1" cy="1" r="1" transform="translate(313 178)"/></g><g transform="translate(-289 -94)"><circle class="c" cx="1" cy="1" r="1" transform="translate(313 178)"/></g><g transform="translate(-277 -94)"><circle class="c" cx="1" cy="1" r="1" transform="translate(313 178)"/></g><g transform="translate(-265 -94)"><circle class="c" cx="1" cy="1" r="1" transform="translate(313 178)"/></g><g transform="translate(-253 -94)"><circle class="c" cx="1" cy="1" r="1" transform="translate(313 178)"/></g><g transform="translate(-241 -94)"><circle class="c" cx="1" cy="1" r="1" transform="translate(313 178)"/></g><g transform="translate(-229 -94)"><circle class="c" cx="1" cy="1" r="1" transform="translate(313 178)"/></g><g transform="translate(-217 -94)"><circle class="c" cx="1" cy="1" r="1" transform="translate(313 178)"/></g><g transform="translate(-205 -94)"><circle class="c" cx="1" cy="1" r="1" transform="translate(313 178)"/></g><g transform="translate(-193 -94)"><circle class="c" cx="1" cy="1" r="1" transform="translate(313 178)"/></g><g transform="translate(-181 -94)"><circle class="c" cx="1" cy="1" r="1" transform="translate(313 178)"/></g><g transform="translate(-313 -82)"><circle class="c" cx="1" cy="1" r="1" transform="translate(313 178)"/></g><g transform="translate(-301 -82)"><circle class="c" cx="1" cy="1" r="1" transform="translate(313 178)"/></g><g transform="translate(-289 -82)"><circle class="c" cx="1" cy="1" r="1" transform="translate(313 178)"/></g><g transform="translate(-277 -82)"><circle class="c" cx="1" cy="1" r="1" transform="translate(313 178)"/></g><g transform="translate(-265 -82)"><circle class="c" cx="1" cy="1" r="1" transform="translate(313 178)"/></g><g transform="translate(-253 -82)"><circle class="c" cx="1" cy="1" r="1" transform="translate(313 178)"/></g><g transform="translate(-241 -82)"><circle class="c" cx="1" cy="1" r="1" transform="translate(313 178)"/></g><g transform="translate(-229 -82)"><circle class="c" cx="1" cy="1" r="1" transform="translate(313 178)"/></g><g transform="translate(-217 -82)"><circle class="c" cx="1" cy="1" r="1" transform="translate(313 178)"/></g><g transform="translate(-205 -82)"><circle class="c" cx="1" cy="1" r="1" transform="translate(313 178)"/></g><g transform="translate(-193 -82)"><circle class="c" cx="1" cy="1" r="1" transform="translate(313 178)"/></g><g transform="translate(-181 -82)"><circle class="c" cx="1" cy="1" r="1" transform="translate(313 178)"/></g><g transform="translate(-313 -70)"><circle class="c" cx="1" cy="1" r="1" transform="translate(313 178)"/></g><g transform="translate(-301 -70)"><circle class="c" cx="1" cy="1" r="1" transform="translate(313 178)"/></g><g transform="translate(-289 -70)"><circle class="c" cx="1" cy="1" r="1" transform="translate(313 178)"/></g><g transform="translate(-277 -70)"><circle class="c" cx="1" cy="1" r="1" transform="translate(313 178)"/></g><g transform="translate(-265 -70)"><circle class="c" cx="1" cy="1" r="1" transform="translate(313 178)"/></g><g transform="translate(-253 -70)"><circle class="c" cx="1" cy="1" r="1" transform="translate(313 178)"/></g><g transform="translate(-241 -70)"><circle class="c" cx="1" cy="1" r="1" transform="translate(313 178)"/></g><g transform="translate(-229 -70)"><circle class="c" cx="1" cy="1" r="1" transform="translate(313 178)"/></g><g transform="translate(-217 -70)"><circle class="c" cx="1" cy="1" r="1" transform="translate(313 178)"/></g><g transform="translate(-205 -70)"><circle class="c" cx="1" cy="1" r="1" transform="translate(313 178)"/></g><g transform="translate(-193 -70)"><circle class="c" cx="1" cy="1" r="1" transform="translate(313 178)"/></g><g transform="translate(-181 -70)"><circle class="c" cx="1" cy="1" r="1" transform="translate(313 178)"/></g><g transform="translate(-313 -58)"><circle class="c" cx="1" cy="1" r="1" transform="translate(313 178)"/></g><g transform="translate(-301 -58)"><circle class="c" cx="1" cy="1" r="1" transform="translate(313 178)"/></g><g transform="translate(-289 -58)"><circle class="c" cx="1" cy="1" r="1" transform="translate(313 178)"/></g><g transform="translate(-277 -58)"><circle class="c" cx="1" cy="1" r="1" transform="translate(313 178)"/></g><g transform="translate(-265 -58)"><circle class="c" cx="1" cy="1" r="1" transform="translate(313 178)"/></g><g transform="translate(-253 -58)"><circle class="c" cx="1" cy="1" r="1" transform="translate(313 178)"/></g><g transform="translate(-241 -58)"><circle class="c" cx="1" cy="1" r="1" transform="translate(313 178)"/></g><g transform="translate(-229 -58)"><circle class="c" cx="1" cy="1" r="1" transform="translate(313 178)"/></g><g transform="translate(-217 -58)"><circle class="c" cx="1" cy="1" r="1" transform="translate(313 178)"/></g><g transform="translate(-205 -58)"><circle class="c" cx="1" cy="1" r="1" transform="translate(313 178)"/></g><g transform="translate(-193 -58)"><circle class="c" cx="1" cy="1" r="1" transform="translate(313 178)"/></g><g transform="translate(-181 -58)"><circle class="c" cx="1" cy="1" r="1" transform="translate(313 178)"/></g><g transform="translate(-313 -46)"><circle class="c" cx="1" cy="1" r="1" transform="translate(313 178)"/></g><g transform="translate(-301 -46)"><circle class="c" cx="1" cy="1" r="1" transform="translate(313 178)"/></g><g transform="translate(-289 -46)"><circle class="c" cx="1" cy="1" r="1" transform="translate(313 178)"/></g><g transform="translate(-277 -46)"><circle class="c" cx="1" cy="1" r="1" transform="translate(313 178)"/></g><g transform="translate(-265 -46)"><circle class="c" cx="1" cy="1" r="1" transform="translate(313 178)"/></g><g transform="translate(-253 -46)"><circle class="c" cx="1" cy="1" r="1" transform="translate(313 178)"/></g><g transform="translate(-241 -46)"><circle class="c" cx="1" cy="1" r="1" transform="translate(313 178)"/></g><g transform="translate(-229 -46)"><circle class="c" cx="1" cy="1" r="1" transform="translate(313 178)"/></g><g transform="translate(-217 -46)"><circle class="c" cx="1" cy="1" r="1" transform="translate(313 178)"/></g><g transform="translate(-205 -46)"><circle class="c" cx="1" cy="1" r="1" transform="translate(313 178)"/></g><g transform="translate(-193 -46)"><circle class="c" cx="1" cy="1" r="1" transform="translate(313 178)"/></g><g transform="translate(-181 -46)"><circle class="c" cx="1" cy="1" r="1" transform="translate(313 178)"/></g><g transform="translate(-313 -34)"><circle class="c" cx="1" cy="1" r="1" transform="translate(313 178)"/></g><g transform="translate(-301 -34)"><circle class="c" cx="1" cy="1" r="1" transform="translate(313 178)"/></g><g transform="translate(-289 -34)"><circle class="c" cx="1" cy="1" r="1" transform="translate(313 178)"/></g><g transform="translate(-277 -34)"><circle class="c" cx="1" cy="1" r="1" transform="translate(313 178)"/></g><g transform="translate(-265 -34)"><circle class="c" cx="1" cy="1" r="1" transform="translate(313 178)"/></g><g transform="translate(-253 -34)"><circle class="c" cx="1" cy="1" r="1" transform="translate(313 178)"/></g><g transform="translate(-241 -34)"><circle class="c" cx="1" cy="1" r="1" transform="translate(313 178)"/></g><g transform="translate(-229 -34)"><circle class="c" cx="1" cy="1" r="1" transform="translate(313 178)"/></g><g transform="translate(-217 -34)"><circle class="c" cx="1" cy="1" r="1" transform="translate(313 178)"/></g><g transform="translate(-205 -34)"><circle class="c" cx="1" cy="1" r="1" transform="translate(313 178)"/></g><g transform="translate(-193 -34)"><circle class="c" cx="1" cy="1" r="1" transform="translate(313 178)"/></g><g transform="translate(-181 -34)"><circle class="c" cx="1" cy="1" r="1" transform="translate(313 178)"/></g><g transform="translate(-313 -22)"><circle class="c" cx="1" cy="1" r="1" transform="translate(313 178)"/></g><g transform="translate(-301 -22)"><circle class="c" cx="1" cy="1" r="1" transform="translate(313 178)"/></g><g transform="translate(-289 -22)"><circle class="c" cx="1" cy="1" r="1" transform="translate(313 178)"/></g><g transform="translate(-277 -22)"><circle class="c" cx="1" cy="1" r="1" transform="translate(313 178)"/></g><g transform="translate(-265 -22)"><circle class="c" cx="1" cy="1" r="1" transform="translate(313 178)"/></g><g transform="translate(-253 -22)"><circle class="c" cx="1" cy="1" r="1" transform="translate(313 178)"/></g><g transform="translate(-241 -22)"><circle class="c" cx="1" cy="1" r="1" transform="translate(313 178)"/></g><g transform="translate(-229 -22)"><circle class="c" cx="1" cy="1" r="1" transform="translate(313 178)"/></g><g transform="translate(-217 -22)"><circle class="c" cx="1" cy="1" r="1" transform="translate(313 178)"/></g><g transform="translate(-205 -22)"><circle class="c" cx="1" cy="1" r="1" transform="translate(313 178)"/></g><g transform="translate(-193 -22)"><circle class="c" cx="1" cy="1" r="1" transform="translate(313 178)"/></g><g transform="translate(-181 -22)"><circle class="c" cx="1" cy="1" r="1" transform="translate(313 178)"/></g><g transform="translate(-313 -10)"><circle class="c" cx="1" cy="1" r="1" transform="translate(313 178)"/></g><g transform="translate(-301 -10)"><circle class="c" cx="1" cy="1" r="1" transform="translate(313 178)"/></g><g transform="translate(-289 -10)"><circle class="c" cx="1" cy="1" r="1" transform="translate(313 178)"/></g><g transform="translate(-277 -10)"><circle class="c" cx="1" cy="1" r="1" transform="translate(313 178)"/></g><g transform="translate(-265 -10)"><circle class="c" cx="1" cy="1" r="1" transform="translate(313 178)"/></g><g transform="translate(-253 -10)"><circle class="c" cx="1" cy="1" r="1" transform="translate(313 178)"/></g><g transform="translate(-241 -10)"><circle class="c" cx="1" cy="1" r="1" transform="translate(313 178)"/></g><g transform="translate(-229 -10)"><circle class="c" cx="1" cy="1" r="1" transform="translate(313 178)"/></g><g transform="translate(-217 -10)"><circle class="c" cx="1" cy="1" r="1" transform="translate(313 178)"/></g><g transform="translate(-205 -10)"><circle class="c" cx="1" cy="1" r="1" transform="translate(313 178)"/></g><g transform="translate(-193 -10)"><circle class="c" cx="1" cy="1" r="1" transform="translate(313 178)"/></g><g transform="translate(-181 -10)"><circle class="c" cx="1" cy="1" r="1" transform="translate(313 178)"/></g><g transform="translate(-313 2)"><circle class="c" cx="1" cy="1" r="1" transform="translate(313 178)"/></g><g transform="translate(-301 2)"><circle class="c" cx="1" cy="1" r="1" transform="translate(313 178)"/></g><g transform="translate(-289 2)"><circle class="c" cx="1" cy="1" r="1" transform="translate(313 178)"/></g><g transform="translate(-277 2)"><circle class="c" cx="1" cy="1" r="1" transform="translate(313 178)"/></g><g transform="translate(-265 2)"><circle class="c" cx="1" cy="1" r="1" transform="translate(313 178)"/></g><g transform="translate(-253 2)"><circle class="c" cx="1" cy="1" r="1" transform="translate(313 178)"/></g><g transform="translate(-241 2)"><circle class="c" cx="1" cy="1" r="1" transform="translate(313 178)"/></g><g transform="translate(-229 2)"><circle class="c" cx="1" cy="1" r="1" transform="translate(313 178)"/></g><g transform="translate(-217 2)"><circle class="c" cx="1" cy="1" r="1" transform="translate(313 178)"/></g><g transform="translate(-205 2)"><circle class="c" cx="1" cy="1" r="1" transform="translate(313 178)"/></g><g transform="translate(-193 2)"><circle class="c" cx="1" cy="1" r="1" transform="translate(313 178)"/></g><g transform="translate(-181 2)"><circle class="c" cx="1" cy="1" r="1" transform="translate(313 178)"/></g><g transform="translate(-313 14)"><circle class="c" cx="1" cy="1" r="1" transform="translate(313 178)"/></g><g transform="translate(-301 14)"><circle class="c" cx="1" cy="1" r="1" transform="translate(313 178)"/></g><g transform="translate(-289 14)"><circle class="c" cx="1" cy="1" r="1" transform="translate(313 178)"/></g><g transform="translate(-277 14)"><circle class="c" cx="1" cy="1" r="1" transform="translate(313 178)"/></g><g transform="translate(-265 14)"><circle class="c" cx="1" cy="1" r="1" transform="translate(313 178)"/></g><g transform="translate(-253 14)"><circle class="c" cx="1" cy="1" r="1" transform="translate(313 178)"/></g><g transform="translate(-241 14)"><circle class="c" cx="1" cy="1" r="1" transform="translate(313 178)"/></g><g transform="translate(-229 14)"><circle class="c" cx="1" cy="1" r="1" transform="translate(313 178)"/></g><g transform="translate(-217 14)"><circle class="c" cx="1" cy="1" r="1" transform="translate(313 178)"/></g><g transform="translate(-205 14)"><circle class="c" cx="1" cy="1" r="1" transform="translate(313 178)"/></g><g transform="translate(-193 14)"><circle class="c" cx="1" cy="1" r="1" transform="translate(313 178)"/></g><g transform="translate(-181 14)"><circle class="c" cx="1" cy="1" r="1" transform="translate(313 178)"/></g><g transform="translate(-313 26)"><circle class="c" cx="1" cy="1" r="1" transform="translate(313 178)"/></g><g transform="translate(-301 26)"><circle class="c" cx="1" cy="1" r="1" transform="translate(313 178)"/></g><g transform="translate(-289 26)"><circle class="c" cx="1" cy="1" r="1" transform="translate(313 178)"/></g><g transform="translate(-277 26)"><circle class="c" cx="1" cy="1" r="1" transform="translate(313 178)"/></g><g transform="translate(-265 26)"><circle class="c" cx="1" cy="1" r="1" transform="translate(313 178)"/></g><g transform="translate(-253 26)"><circle class="c" cx="1" cy="1" r="1" transform="translate(313 178)"/></g><g transform="translate(-241 26)"><circle class="c" cx="1" cy="1" r="1" transform="translate(313 178)"/></g><g transform="translate(-229 26)"><circle class="c" cx="1" cy="1" r="1" transform="translate(313 178)"/></g><g transform="translate(-217 26)"><circle class="c" cx="1" cy="1" r="1" transform="translate(313 178)"/></g><g transform="translate(-205 26)"><circle class="c" cx="1" cy="1" r="1" transform="translate(313 178)"/></g><g transform="translate(-193 26)"><circle class="c" cx="1" cy="1" r="1" transform="translate(313 178)"/></g><g transform="translate(-181 26)"><circle class="c" cx="1" cy="1" r="1" transform="translate(313 178)"/></g><g transform="translate(-313 38)"><circle class="c" cx="1" cy="1" r="1" transform="translate(313 178)"/></g><g transform="translate(-301 38)"><circle class="c" cx="1" cy="1" r="1" transform="translate(313 178)"/></g><g transform="translate(-289 38)"><circle class="c" cx="1" cy="1" r="1" transform="translate(313 178)"/></g><g transform="translate(-277 38)"><circle class="c" cx="1" cy="1" r="1" transform="translate(313 178)"/></g><g transform="translate(-265 38)"><circle class="c" cx="1" cy="1" r="1" transform="translate(313 178)"/></g><g transform="translate(-253 38)"><circle class="c" cx="1" cy="1" r="1" transform="translate(313 178)"/></g><g transform="translate(-241 38)"><circle class="c" cx="1" cy="1" r="1" transform="translate(313 178)"/></g><g transform="translate(-229 38)"><circle class="c" cx="1" cy="1" r="1" transform="translate(313 178)"/></g><g transform="translate(-217 38)"><circle class="c" cx="1" cy="1" r="1" transform="translate(313 178)"/></g><g transform="translate(-205 38)"><circle class="c" cx="1" cy="1" r="1" transform="translate(313 178)"/></g><g transform="translate(-193 38)"><circle class="c" cx="1" cy="1" r="1" transform="translate(313 178)"/></g><g transform="translate(-181 38)"><circle class="c" cx="1" cy="1" r="1" transform="translate(313 178)"/></g><g transform="translate(-313 50)"><circle class="c" cx="1" cy="1" r="1" transform="translate(313 178)"/></g><g transform="translate(-301 50)"><circle class="c" cx="1" cy="1" r="1" transform="translate(313 178)"/></g><g transform="translate(-289 50)"><circle class="c" cx="1" cy="1" r="1" transform="translate(313 178)"/></g><g transform="translate(-277 50)"><circle class="c" cx="1" cy="1" r="1" transform="translate(313 178)"/></g><g transform="translate(-265 50)"><circle class="c" cx="1" cy="1" r="1" transform="translate(313 178)"/></g><g transform="translate(-253 50)"><circle class="c" cx="1" cy="1" r="1" transform="translate(313 178)"/></g><g transform="translate(-241 50)"><circle class="c" cx="1" cy="1" r="1" transform="translate(313 178)"/></g><g transform="translate(-229 50)"><circle class="c" cx="1" cy="1" r="1" transform="translate(313 178)"/></g><g transform="translate(-217 50)"><circle class="c" cx="1" cy="1" r="1" transform="translate(313 178)"/></g><g transform="translate(-205 50)"><circle class="c" cx="1" cy="1" r="1" transform="translate(313 178)"/></g><g transform="translate(-193 50)"><circle class="c" cx="1" cy="1" r="1" transform="translate(313 178)"/></g><g transform="translate(-181 50)"><circle class="c" cx="1" cy="1" r="1" transform="translate(313 178)"/></g><g transform="translate(-313 62)"><circle class="c" cx="1" cy="1" r="1" transform="translate(313 178)"/></g><g transform="translate(-301 62)"><circle class="c" cx="1" cy="1" r="1" transform="translate(313 178)"/></g><g transform="translate(-289 62)"><circle class="c" cx="1" cy="1" r="1" transform="translate(313 178)"/></g><g transform="translate(-277 62)"><circle class="c" cx="1" cy="1" r="1" transform="translate(313 178)"/></g><g transform="translate(-265 62)"><circle class="c" cx="1" cy="1" r="1" transform="translate(313 178)"/></g><g transform="translate(-253 62)"><circle class="c" cx="1" cy="1" r="1" transform="translate(313 178)"/></g><g transform="translate(-241 62)"><circle class="c" cx="1" cy="1" r="1" transform="translate(313 178)"/></g><g transform="translate(-229 62)"><circle class="c" cx="1" cy="1" r="1" transform="translate(313 178)"/></g><g transform="translate(-217 62)"><circle class="c" cx="1" cy="1" r="1" transform="translate(313 178)"/></g><g transform="translate(-205 62)"><circle class="c" cx="1" cy="1" r="1" transform="translate(313 178)"/></g><g transform="translate(-193 62)"><circle class="c" cx="1" cy="1" r="1" transform="translate(313 178)"/></g><g transform="translate(-181 62)"><circle class="c" cx="1" cy="1" r="1" transform="translate(313 178)"/></g><g transform="translate(-313 74)"><circle class="c" cx="1" cy="1" r="1" transform="translate(313 178)"/></g><g transform="translate(-301 74)"><circle class="c" cx="1" cy="1" r="1" transform="translate(313 178)"/></g><g transform="translate(-289 74)"><circle class="c" cx="1" cy="1" r="1" transform="translate(313 178)"/></g><g transform="translate(-277 74)"><circle class="c" cx="1" cy="1" r="1" transform="translate(313 178)"/></g><g transform="translate(-265 74)"><circle class="c" cx="1" cy="1" r="1" transform="translate(313 178)"/></g><g transform="translate(-253 74)"><circle class="c" cx="1" cy="1" r="1" transform="translate(313 178)"/></g><g transform="translate(-241 74)"><circle class="c" cx="1" cy="1" r="1" transform="translate(313 178)"/></g><g transform="translate(-229 74)"><circle class="c" cx="1" cy="1" r="1" transform="translate(313 178)"/></g><g transform="translate(-217 74)"><circle class="c" cx="1" cy="1" r="1" transform="translate(313 178)"/></g><g transform="translate(-205 74)"><circle class="c" cx="1" cy="1" r="1" transform="translate(313 178)"/></g><g transform="translate(-193 74)"><circle class="c" cx="1" cy="1" r="1" transform="translate(313 178)"/></g><g transform="translate(-181 74)"><circle class="c" cx="1" cy="1" r="1" transform="translate(313 178)"/></g><g transform="translate(-313 86)"><circle class="c" cx="1" cy="1" r="1" transform="translate(313 178)"/></g><g transform="translate(-301 86)"><circle class="c" cx="1" cy="1" r="1" transform="translate(313 178)"/></g><g transform="translate(-289 86)"><circle class="c" cx="1" cy="1" r="1" transform="translate(313 178)"/></g><g transform="translate(-277 86)"><circle class="c" cx="1" cy="1" r="1" transform="translate(313 178)"/></g><g transform="translate(-265 86)"><circle class="c" cx="1" cy="1" r="1" transform="translate(313 178)"/></g><g transform="translate(-253 86)"><circle class="c" cx="1" cy="1" r="1" transform="translate(313 178)"/></g><g transform="translate(-241 86)"><circle class="c" cx="1" cy="1" r="1" transform="translate(313 178)"/></g><g transform="translate(-229 86)"><circle class="c" cx="1" cy="1" r="1" transform="translate(313 178)"/></g><g transform="translate(-217 86)"><circle class="c" cx="1" cy="1" r="1" transform="translate(313 178)"/></g><g transform="translate(-205 86)"><circle class="c" cx="1" cy="1" r="1" transform="translate(313 178)"/></g><g transform="translate(-193 86)"><circle class="c" cx="1" cy="1" r="1" transform="translate(313 178)"/></g><g transform="translate(-181 86)"><circle class="c" cx="1" cy="1" r="1" transform="translate(313 178)"/></g><g transform="translate(-313 98)"><circle class="c" cx="1" cy="1" r="1" transform="translate(313 178)"/></g><g transform="translate(-301 98)"><circle class="c" cx="1" cy="1" r="1" transform="translate(313 178)"/></g><g transform="translate(-289 98)"><circle class="c" cx="1" cy="1" r="1" transform="translate(313 178)"/></g><g transform="translate(-277 98)"><circle class="c" cx="1" cy="1" r="1" transform="translate(313 178)"/></g><g transform="translate(-265 98)"><circle class="c" cx="1" cy="1" r="1" transform="translate(313 178)"/></g><g transform="translate(-253 98)"><circle class="c" cx="1" cy="1" r="1" transform="translate(313 178)"/></g><g transform="translate(-241 98)"><circle class="c" cx="1" cy="1" r="1" transform="translate(313 178)"/></g><g transform="translate(-229 98)"><circle class="c" cx="1" cy="1" r="1" transform="translate(313 178)"/></g><g transform="translate(-217 98)"><circle class="c" cx="1" cy="1" r="1" transform="translate(313 178)"/></g><g transform="translate(-205 98)"><circle class="c" cx="1" cy="1" r="1" transform="translate(313 178)"/></g><g transform="translate(-193 98)"><circle class="c" cx="1" cy="1" r="1" transform="translate(313 178)"/></g><g transform="translate(-181 98)"><circle class="c" cx="1" cy="1" r="1" transform="translate(313 178)"/></g><g transform="translate(-313 110)"><circle class="c" cx="1" cy="1" r="1" transform="translate(313 178)"/></g><g transform="translate(-301 110)"><circle class="c" cx="1" cy="1" r="1" transform="translate(313 178)"/></g><g transform="translate(-289 110)"><circle class="c" cx="1" cy="1" r="1" transform="translate(313 178)"/></g><g transform="translate(-277 110)"><circle class="c" cx="1" cy="1" r="1" transform="translate(313 178)"/></g><g transform="translate(-265 110)"><circle class="c" cx="1" cy="1" r="1" transform="translate(313 178)"/></g><g transform="translate(-253 110)"><circle class="c" cx="1" cy="1" r="1" transform="translate(313 178)"/></g><g transform="translate(-241 110)"><circle class="c" cx="1" cy="1" r="1" transform="translate(313 178)"/></g><g transform="translate(-229 110)"><circle class="c" cx="1" cy="1" r="1" transform="translate(313 178)"/></g><g transform="translate(-217 110)"><circle class="c" cx="1" cy="1" r="1" transform="translate(313 178)"/></g><g transform="translate(-205 110)"><circle class="c" cx="1" cy="1" r="1" transform="translate(313 178)"/></g><g transform="translate(-193 110)"><circle class="c" cx="1" cy="1" r="1" transform="translate(313 178)"/></g><g transform="translate(-181 110)"><circle class="c" cx="1" cy="1" r="1" transform="translate(313 178)"/></g><g transform="translate(-313 122)"><circle class="c" cx="1" cy="1" r="1" transform="translate(313 178)"/></g><g transform="translate(-301 122)"><circle class="c" cx="1" cy="1" r="1" transform="translate(313 178)"/></g><g transform="translate(-289 122)"><circle class="c" cx="1" cy="1" r="1" transform="translate(313 178)"/></g><g transform="translate(-277 122)"><circle class="c" cx="1" cy="1" r="1" transform="translate(313 178)"/></g><g transform="translate(-265 122)"><circle class="c" cx="1" cy="1" r="1" transform="translate(313 178)"/></g><g transform="translate(-253 122)"><circle class="c" cx="1" cy="1" r="1" transform="translate(313 178)"/></g><g transform="translate(-241 122)"><circle class="c" cx="1" cy="1" r="1" transform="translate(313 178)"/></g><g transform="translate(-229 122)"><circle class="c" cx="1" cy="1" r="1" transform="translate(313 178)"/></g><g transform="translate(-217 122)"><circle class="c" cx="1" cy="1" r="1" transform="translate(313 178)"/></g><g transform="translate(-205 122)"><circle class="c" cx="1" cy="1" r="1" transform="translate(313 178)"/></g><g transform="translate(-193 122)"><circle class="c" cx="1" cy="1" r="1" transform="translate(313 178)"/></g><g transform="translate(-181 122)"><circle class="c" cx="1" cy="1" r="1" transform="translate(313 178)"/></g><g transform="translate(-313 134)"><circle class="c" cx="1" cy="1" r="1" transform="translate(313 178)"/></g><g transform="translate(-301 134)"><circle class="c" cx="1" cy="1" r="1" transform="translate(313 178)"/></g><g transform="translate(-289 134)"><circle class="c" cx="1" cy="1" r="1" transform="translate(313 178)"/></g><g transform="translate(-277 134)"><circle class="c" cx="1" cy="1" r="1" transform="translate(313 178)"/></g><g transform="translate(-265 134)"><circle class="c" cx="1" cy="1" r="1" transform="translate(313 178)"/></g><g transform="translate(-253 134)"><circle class="c" cx="1" cy="1" r="1" transform="translate(313 178)"/></g><g transform="translate(-241 134)"><circle class="c" cx="1" cy="1" r="1" transform="translate(313 178)"/></g><g transform="translate(-229 134)"><circle class="c" cx="1" cy="1" r="1" transform="translate(313 178)"/></g><g transform="translate(-217 134)"><circle class="c" cx="1" cy="1" r="1" transform="translate(313 178)"/></g><g transform="translate(-205 134)"><circle class="c" cx="1" cy="1" r="1" transform="translate(313 178)"/></g><g transform="translate(-193 134)"><circle class="c" cx="1" cy="1" r="1" transform="translate(313 178)"/></g><g transform="translate(-181 134)"><circle class="c" cx="1" cy="1" r="1" transform="translate(313 178)"/></g></g></svg>