<svg xmlns="http://www.w3.org/2000/svg" width="34.532" height="27.011" viewBox="0 0 34.532 27.011"><defs><style>.a{fill:#ccc;}.b{fill:#55a7c5;}</style></defs><g transform="translate(-311.591 -129.803)"><path class="a" d="M8.382,10.451c-1.779,5.417-7.329,8.92-7.329,8.92S-1.614,14.09.165,8.672,7.495-.248,7.495-.248,10.161,5.034,8.382,10.451Z" transform="translate(331.957 131.752) rotate(19)"/><path class="a" d="M.091,10.725c1.392,5.313,6.7,8.456,6.7,8.456S9.848,13.711,8.456,8.4s-6.7-8.456-6.7-8.456S-1.3,5.413.091,10.725Z" transform="translate(326.092 129.947) rotate(19)"/><path class="b" d="M10.721,3.844c4.211,3.733,4.527,9.675,4.527,9.675s-6.51-.111-10.721-3.844S0,0,0,0,6.51.111,10.721,3.844Z" transform="translate(315.992 133.774) rotate(19)"/><path class="b" d="M4.73,4.042a17.8,17.8,0,0,0-5.237,10S6.027,13.5,10.518,9.477a17.8,17.8,0,0,0,5.237-10S9.221.021,4.73,4.042Z" transform="translate(331.058 138.411) rotate(19)"/></g></svg>