<svg xmlns="http://www.w3.org/2000/svg" width="38.048" height="31.652" viewBox="0 0 38.048 31.652"><defs><style>.a{fill:#ccc;}.b{fill:#55a7c5;}</style></defs><g transform="translate(-228.844 -222.092)"><path class="a" d="M9.483,12.532C7.352,19.058,1.094,23.4,1.094,23.4A19.525,19.525,0,0,1,.42,10.643C2.551,4.116,8.809-.23,8.809-.23A19.525,19.525,0,0,1,9.483,12.532Z" transform="translate(241.199 225.319) rotate(-17)"/><path class="a" d="M.091,12.878c1.39,6.31,7.19,9.913,7.19,9.913s3.546-6.627,2.156-12.936S2.247-.059,2.247-.059-1.3,6.568.091,12.878Z" transform="translate(235.055 227.868) rotate(-17)"/><path class="b" d="M11.781,4.283c4.562,4.34,4.741,11.433,4.741,11.433S9.3,15.773,4.741,11.433,0,0,0,0,7.218-.057,11.781,4.283Z" transform="translate(228.844 238.715) rotate(-17)"/><path class="b" d="M5.677,5.3c-5.1,4.936-6.1,12.1-6.1,12.1s7.263-.837,12.361-5.772,6.1-12.1,6.1-12.1S10.774.365,5.677,5.3Z" transform="translate(244.555 232.149) rotate(-17)"/></g></svg>