<svg xmlns="http://www.w3.org/2000/svg" xmlns:xlink="http://www.w3.org/1999/xlink" width="162" height="124" viewBox="0 0 162 124"><defs><style>.a,.g,.j,.k{fill:none;}.b{clip-path:url(#a);}.c{fill:#d5d5d5;}.d,.h{fill:#707070;font-family:Roboto-Bold, Roboto;font-weight:700;}.d{font-size:28px;}.e{font-family:Roboto-Medium, Roboto;font-weight:500;}.f,.i{fill:#fff;}.f{stroke:#00ecd3;stroke-width:5px;}.g{stroke:#707070;}.g,.j{stroke-linecap:round;}.g,.i,.j,.k{stroke-width:3px;}.h{font-size:20px;}.i,.j,.k{stroke:#2a09f1;}.k{stroke-linecap:square;}.l{stroke:none;}</style><clipPath id="a"><rect class="a" width="136" height="90"/></clipPath></defs><g transform="translate(-50 -920)"><g class="b" transform="translate(76 954)"><g transform="translate(-688 -1923)"><circle class="c" cx="3" cy="3" r="3" transform="translate(688 1923)"/></g><g transform="translate(-663 -1923)"><circle class="c" cx="3" cy="3" r="3" transform="translate(688 1923)"/></g><g transform="translate(-638 -1923)"><circle class="c" cx="3" cy="3" r="3" transform="translate(688 1923)"/></g><g transform="translate(-613 -1923)"><circle class="c" cx="3" cy="3" r="3" transform="translate(688 1923)"/></g><g transform="translate(-588 -1923)"><circle class="c" cx="3" cy="3" r="3" transform="translate(688 1923)"/></g><g transform="translate(-563 -1923)"><circle class="c" cx="3" cy="3" r="3" transform="translate(688 1923)"/></g><g transform="translate(-688 -1898)"><circle class="c" cx="3" cy="3" r="3" transform="translate(688 1923)"/></g><g transform="translate(-663 -1898)"><circle class="c" cx="3" cy="3" r="3" transform="translate(688 1923)"/></g><g transform="translate(-638 -1898)"><circle class="c" cx="3" cy="3" r="3" transform="translate(688 1923)"/></g><g transform="translate(-613 -1898)"><circle class="c" cx="3" cy="3" r="3" transform="translate(688 1923)"/></g><g transform="translate(-588 -1898)"><circle class="c" cx="3" cy="3" r="3" transform="translate(688 1923)"/></g><g transform="translate(-563 -1898)"><circle class="c" cx="3" cy="3" r="3" transform="translate(688 1923)"/></g><g transform="translate(-688 -1873)"><circle class="c" cx="3" cy="3" r="3" transform="translate(688 1923)"/></g><g transform="translate(-663 -1873)"><circle class="c" cx="3" cy="3" r="3" transform="translate(688 1923)"/></g><g transform="translate(-638 -1873)"><circle class="c" cx="3" cy="3" r="3" transform="translate(688 1923)"/></g><g transform="translate(-613 -1873)"><circle class="c" cx="3" cy="3" r="3" transform="translate(688 1923)"/></g><g transform="translate(-588 -1873)"><circle class="c" cx="3" cy="3" r="3" transform="translate(688 1923)"/></g><g transform="translate(-563 -1873)"><circle class="c" cx="3" cy="3" r="3" transform="translate(688 1923)"/></g><g transform="translate(-688 -1848)"><circle class="c" cx="3" cy="3" r="3" transform="translate(688 1923)"/></g><g transform="translate(-663 -1848)"><circle class="c" cx="3" cy="3" r="3" transform="translate(688 1923)"/></g><g transform="translate(-638 -1848)"><circle class="c" cx="3" cy="3" r="3" transform="translate(688 1923)"/></g><g transform="translate(-613 -1848)"><circle class="c" cx="3" cy="3" r="3" transform="translate(688 1923)"/></g><g transform="translate(-588 -1848)"><circle class="c" cx="3" cy="3" r="3" transform="translate(688 1923)"/></g><g transform="translate(-563 -1848)"><circle class="c" cx="3" cy="3" r="3" transform="translate(688 1923)"/></g></g><text class="d" transform="translate(67 947)"><tspan x="0" y="0"></tspan><tspan class="e"><tspan x="0" y="34"></tspan></tspan></text><g transform="translate(-608 -719)"><g class="f" transform="translate(658 1646)"><rect class="l" width="71" height="86" rx="5"/><rect class="a" x="2.5" y="2.5" width="66" height="81" rx="2.5"/></g><line class="g" x2="37.25" transform="translate(674.875 1698)"/><line class="g" x2="23.625" transform="translate(674.875 1706)"/><line class="g" x2="37.25" transform="translate(674.875 1690)"/><text class="h" transform="translate(670 1677)"><tspan x="0" y="0">&lt;…./&gt;</tspan></text></g><g transform="translate(-608 -719)"><g class="i" transform="translate(716 1698)"><rect class="l" width="27" height="43" rx="5"/><rect class="a" x="1.5" y="1.5" width="24" height="40" rx="3.5"/></g><path class="j" d="M838.75,1871.871s5.542-2.882,5.277-6.6-13.741-1.857-11.1-9.455,2.907-8.948,2.907-8.948" transform="translate(-109 -172.871)"/><line class="k" x2="19.5" transform="translate(720 1719.5)"/><path class="g" d="M0,0H5.9" transform="translate(729.5 1706) rotate(90)"/></g></g></svg>