<svg xmlns="http://www.w3.org/2000/svg" xmlns:xlink="http://www.w3.org/1999/xlink" width="162" height="125" viewBox="0 0 162 125"><defs><style>.a,.e,.i,.j,.k,.l{fill:none;}.b{clip-path:url(#a);}.c{fill:#d5d5d5;}.d,.m{fill:#fff;}.d,.j{stroke:#00ecd3;}.d{stroke-width:5px;}.e{stroke:#707070;}.e,.j,.l{stroke-linecap:round;}.e,.i,.j,.k,.l,.m{stroke-width:3px;}.f{fill:#707070;font-size:28px;font-family:Roboto-Bold, Roboto;font-weight:700;}.g{font-family:Roboto-Medium, Roboto;font-weight:500;}.h{fill:#00ecd3;}.i{stroke:#aeaeae;stroke-linecap:square;}.k,.l{stroke:#292929;}.m{stroke:#2a09f1;}.n{fill:#292929;}.o{stroke:none;}</style><clipPath id="a"><rect class="a" width="136" height="90"/></clipPath></defs><g transform="translate(-50 -1182)"><g class="b" transform="translate(76 1217)"><g transform="translate(-688 -1923)"><circle class="c" cx="3" cy="3" r="3" transform="translate(688 1923)"/></g><g transform="translate(-663 -1923)"><circle class="c" cx="3" cy="3" r="3" transform="translate(688 1923)"/></g><g transform="translate(-638 -1923)"><circle class="c" cx="3" cy="3" r="3" transform="translate(688 1923)"/></g><g transform="translate(-613 -1923)"><circle class="c" cx="3" cy="3" r="3" transform="translate(688 1923)"/></g><g transform="translate(-588 -1923)"><circle class="c" cx="3" cy="3" r="3" transform="translate(688 1923)"/></g><g transform="translate(-563 -1923)"><circle class="c" cx="3" cy="3" r="3" transform="translate(688 1923)"/></g><g transform="translate(-688 -1898)"><circle class="c" cx="3" cy="3" r="3" transform="translate(688 1923)"/></g><g transform="translate(-663 -1898)"><circle class="c" cx="3" cy="3" r="3" transform="translate(688 1923)"/></g><g transform="translate(-638 -1898)"><circle class="c" cx="3" cy="3" r="3" transform="translate(688 1923)"/></g><g transform="translate(-613 -1898)"><circle class="c" cx="3" cy="3" r="3" transform="translate(688 1923)"/></g><g transform="translate(-588 -1898)"><circle class="c" cx="3" cy="3" r="3" transform="translate(688 1923)"/></g><g transform="translate(-563 -1898)"><circle class="c" cx="3" cy="3" r="3" transform="translate(688 1923)"/></g><g transform="translate(-688 -1873)"><circle class="c" cx="3" cy="3" r="3" transform="translate(688 1923)"/></g><g transform="translate(-663 -1873)"><circle class="c" cx="3" cy="3" r="3" transform="translate(688 1923)"/></g><g transform="translate(-638 -1873)"><circle class="c" cx="3" cy="3" r="3" transform="translate(688 1923)"/></g><g transform="translate(-613 -1873)"><circle class="c" cx="3" cy="3" r="3" transform="translate(688 1923)"/></g><g transform="translate(-588 -1873)"><circle class="c" cx="3" cy="3" r="3" transform="translate(688 1923)"/></g><g transform="translate(-563 -1873)"><circle class="c" cx="3" cy="3" r="3" transform="translate(688 1923)"/></g><g transform="translate(-688 -1848)"><circle class="c" cx="3" cy="3" r="3" transform="translate(688 1923)"/></g><g transform="translate(-663 -1848)"><circle class="c" cx="3" cy="3" r="3" transform="translate(688 1923)"/></g><g transform="translate(-638 -1848)"><circle class="c" cx="3" cy="3" r="3" transform="translate(688 1923)"/></g><g transform="translate(-613 -1848)"><circle class="c" cx="3" cy="3" r="3" transform="translate(688 1923)"/></g><g transform="translate(-588 -1848)"><circle class="c" cx="3" cy="3" r="3" transform="translate(688 1923)"/></g><g transform="translate(-563 -1848)"><circle class="c" cx="3" cy="3" r="3" transform="translate(688 1923)"/></g></g><g transform="translate(0 -176)"><g class="d" transform="translate(50 1366)"><rect class="o" width="71" height="86" rx="5"/><rect class="a" x="2.5" y="2.5" width="66" height="81" rx="2.5"/></g><path class="e" d="M0,0H17.721" transform="translate(81.375 1388)"/><text class="f" transform="translate(86 1385)"><tspan x="0" y="0"></tspan><tspan class="g"><tspan x="0" y="34"></tspan></tspan></text><circle class="h" cx="7.5" cy="7.5" r="7.5" transform="translate(62 1378)"/><line class="i" y1="4" transform="translate(69.5 1415)"/><line class="j" y1="19.5" transform="translate(69.5 1387)"/><g class="k" transform="translate(62 1420)"><circle class="o" cx="7.5" cy="7.5" r="7.5"/><circle class="a" cx="7.5" cy="7.5" r="6"/></g><circle class="h" cx="7.5" cy="7.5" r="7.5" transform="translate(62 1399)"/><path class="e" d="M0,0H23.94" transform="translate(81.375 1404)"/><path class="e" d="M0,0H17.721" transform="translate(81.375 1409)"/><path class="l" d="M0,0H23.94" transform="translate(81.375 1425)"/><path class="l" d="M0,0H17.721" transform="translate(81.375 1430)"/><rect class="a" width="24" height="24" transform="translate(103 1430)"/></g><g transform="translate(-615 -985)"><g class="m" transform="translate(710 2230)"><circle class="o" cx="20" cy="20" r="20"/><circle class="a" cx="20" cy="20" r="18.5"/></g><g transform="translate(718 2239)"><path class="n" d="M19,5H17V3H7V5H5A2.006,2.006,0,0,0,3,7V8a4.991,4.991,0,0,0,4.39,4.94A5.009,5.009,0,0,0,11,15.9V19H7v2H17V19H13V15.9a5.009,5.009,0,0,0,3.61-2.96A4.991,4.991,0,0,0,21,8V7A2.006,2.006,0,0,0,19,5ZM5,8V7H7v3.82A3.01,3.01,0,0,1,5,8ZM19,8a3.01,3.01,0,0,1-2,2.82V7h2Z" transform="translate(0 -1)"/></g></g></g></svg>