<svg xmlns="http://www.w3.org/2000/svg" xmlns:xlink="http://www.w3.org/1999/xlink" width="162" height="110" viewBox="0 0 162 110"><defs><style>.a,.e{fill:none;}.b{clip-path:url(#a);}.c{fill:#d5d5d5;}.d,.g{fill:#fff;}.d{stroke:#00ecd3;stroke-width:5px;}.e{stroke:#707070;stroke-linecap:round;stroke-width:3px;}.f{fill:#292929;}.h{fill:#2a09f1;}.i{stroke:none;}</style><clipPath id="a"><rect class="a" width="136" height="83"/></clipPath></defs><g transform="translate(-53 -1449)"><g class="b" transform="translate(79 1476)"><g transform="translate(-688 -1923)"><circle class="c" cx="3" cy="3" r="3" transform="translate(688 1923)"/></g><g transform="translate(-663 -1923)"><circle class="c" cx="3" cy="3" r="3" transform="translate(688 1923)"/></g><g transform="translate(-638 -1923)"><circle class="c" cx="3" cy="3" r="3" transform="translate(688 1923)"/></g><g transform="translate(-613 -1923)"><circle class="c" cx="3" cy="3" r="3" transform="translate(688 1923)"/></g><g transform="translate(-588 -1923)"><circle class="c" cx="3" cy="3" r="3" transform="translate(688 1923)"/></g><g transform="translate(-563 -1923)"><circle class="c" cx="3" cy="3" r="3" transform="translate(688 1923)"/></g><g transform="translate(-688 -1898)"><circle class="c" cx="3" cy="3" r="3" transform="translate(688 1923)"/></g><g transform="translate(-663 -1898)"><circle class="c" cx="3" cy="3" r="3" transform="translate(688 1923)"/></g><g transform="translate(-638 -1898)"><circle class="c" cx="3" cy="3" r="3" transform="translate(688 1923)"/></g><g transform="translate(-613 -1898)"><circle class="c" cx="3" cy="3" r="3" transform="translate(688 1923)"/></g><g transform="translate(-588 -1898)"><circle class="c" cx="3" cy="3" r="3" transform="translate(688 1923)"/></g><g transform="translate(-563 -1898)"><circle class="c" cx="3" cy="3" r="3" transform="translate(688 1923)"/></g><g transform="translate(-688 -1873)"><circle class="c" cx="3" cy="3" r="3" transform="translate(688 1923)"/></g><g transform="translate(-663 -1873)"><circle class="c" cx="3" cy="3" r="3" transform="translate(688 1923)"/></g><g transform="translate(-638 -1873)"><circle class="c" cx="3" cy="3" r="3" transform="translate(688 1923)"/></g><g transform="translate(-613 -1873)"><circle class="c" cx="3" cy="3" r="3" transform="translate(688 1923)"/></g><g transform="translate(-588 -1873)"><circle class="c" cx="3" cy="3" r="3" transform="translate(688 1923)"/></g><g transform="translate(-563 -1873)"><circle class="c" cx="3" cy="3" r="3" transform="translate(688 1923)"/></g><g transform="translate(-688 -1848)"><circle class="c" cx="3" cy="3" r="3" transform="translate(688 1923)"/></g><g transform="translate(-663 -1848)"><circle class="c" cx="3" cy="3" r="3" transform="translate(688 1923)"/></g><g transform="translate(-638 -1848)"><circle class="c" cx="3" cy="3" r="3" transform="translate(688 1923)"/></g><g transform="translate(-613 -1848)"><circle class="c" cx="3" cy="3" r="3" transform="translate(688 1923)"/></g><g transform="translate(-588 -1848)"><circle class="c" cx="3" cy="3" r="3" transform="translate(688 1923)"/></g><g transform="translate(-563 -1848)"><circle class="c" cx="3" cy="3" r="3" transform="translate(688 1923)"/></g></g><g class="d" transform="translate(53 1449)"><rect class="i" width="71" height="86" rx="5"/><rect class="a" x="2.5" y="2.5" width="66" height="81" rx="2.5"/></g><line class="e" x2="37.25" transform="translate(68.875 1502)"/><line class="e" x2="23.625" transform="translate(68.875 1510)"/><line class="e" x2="37.25" transform="translate(68.875 1494)"/><path class="f" d="M12,2A10,10,0,1,0,22,12,10,10,0,0,0,12,2Zm0,3A3,3,0,1,1,9,8,3,3,0,0,1,12,5Zm0,14.2a7.2,7.2,0,0,1-6-3.22c.03-1.99,4-3.08,6-3.08s5.97,1.09,6,3.08A7.2,7.2,0,0,1,12,19.2Z" transform="translate(67 1462)"/><g transform="translate(-702.628 -959.628)"><g transform="translate(790.256 2457.256)"><path class="a" d="M0,0H50V50H0Z"/></g><rect class="g" width="34.256" height="27" transform="translate(798 2474)"/><path class="h" d="M37.222,26.3H25V37.8H37.222ZM34.778,1V5.6H15.222V1H10.333V5.6H7.889a4.728,4.728,0,0,0-4.864,4.6L3,42.4A4.749,4.749,0,0,0,7.889,47H42.111A4.765,4.765,0,0,0,47,42.4V10.2a4.765,4.765,0,0,0-4.889-4.6H39.667V1Zm7.333,41.4H7.889V17.1H42.111Z" transform="translate(790.256 2456.628)"/></g></g></svg>