<svg xmlns="http://www.w3.org/2000/svg" width="15" height="15" viewBox="0 0 15 15"><defs><style>.a{fill:#01b5f6;}</style></defs><path class="a" d="M12.779,12.782H10.558V9.3c0-.83-.017-1.9-1.158-1.9-1.158,0-1.335.9-1.335,1.837v3.542H5.844V5.625H7.978V6.6h.029a2.341,2.341,0,0,1,2.106-1.156c2.251,0,2.667,1.481,2.667,3.409v3.929ZM3.336,4.646a1.29,1.29,0,1,1,1.29-1.291A1.289,1.289,0,0,1,3.336,4.646Zm1.114,8.137H2.222V5.625H4.449ZM13.891,0H1.107A1.094,1.094,0,0,0,0,1.081V13.919A1.093,1.093,0,0,0,1.107,15H13.889A1.1,1.1,0,0,0,15,13.919V1.081A1.1,1.1,0,0,0,13.889,0Z"/></svg>