<svg xmlns="http://www.w3.org/2000/svg" width="25.675" height="23.768" viewBox="0 0 25.675 23.768"><defs><style>.a{fill:#01b5f6;}</style></defs><path class="a" d="M329.07-1702.888c.04.063,1.914,3.064,4.165,6.671l4.1,6.558,3.7.009,3.7.009,2.31,3.7c1.27,2.033,2.323,3.719,2.337,3.748l.027.048-1.972,0-1.972-.005-1.8-2.886c-.991-1.587-1.812-2.886-1.821-2.888s-.831,1.3-1.824,2.891l-1.8,2.891h-1.97c-1.083,0-1.967-.007-1.963-.014s.642-1.036,1.421-2.283,1.421-2.28,1.429-2.3a9.142,9.142,0,0,0-1.7-.029H333.7l-2.276,3.647c-1.252,2.006-2.31,3.7-2.352,3.769l-.077.122,5.417,0,5.419-.005.991-1.589c.545-.873,1-1.589,1.006-1.592s.462.713,1.009,1.589l.995,1.592,5.417.005,5.419,0-.077-.122-4.169-6.675-4.093-6.553-3.7,0-3.7-.005-2.337-3.74c-1.285-2.057-2.335-3.742-2.335-3.746s.885-.007,1.968-.007h1.968l1.8,2.891c.993,1.59,1.814,2.891,1.824,2.891s.829-1.3,1.823-2.893l1.806-2.89h1.968a9.281,9.281,0,0,1,1.952.032c-.011.02-.653,1.052-1.432,2.3s-1.412,2.269-1.412,2.278.748.016,1.715.016l1.713,0,2.168-3.472c1.193-1.911,2.251-3.607,2.352-3.769l.184-.3-5.417,0-5.417.005-.995,1.592c-.547.876-1,1.59-1.009,1.59s-.459-.718-1-1.592l-.993-1.59-5.419-.005L329-1703Z" transform="translate(-329 1703)"/></svg>