<svg xmlns="http://www.w3.org/2000/svg" xmlns:xlink="http://www.w3.org/1999/xlink" width="368" height="68" viewBox="0 0 368 68"><defs><style>.a{fill:none;}.b{clip-path:url(#a);}.c{fill:rgba(85,167,197,0.5);}</style><clipPath id="a"><rect class="a" width="368" height="68"/></clipPath></defs><g class="b"><g transform="translate(-313 -178)"><circle class="c" cx="1" cy="1" r="1" transform="translate(313 178)"/></g><g transform="translate(-301 -178)"><circle class="c" cx="1" cy="1" r="1" transform="translate(313 178)"/></g><g transform="translate(-289 -178)"><circle class="c" cx="1" cy="1" r="1" transform="translate(313 178)"/></g><g transform="translate(-277 -178)"><circle class="c" cx="1" cy="1" r="1" transform="translate(313 178)"/></g><g transform="translate(-265 -178)"><circle class="c" cx="1" cy="1" r="1" transform="translate(313 178)"/></g><g transform="translate(-253 -178)"><circle class="c" cx="1" cy="1" r="1" transform="translate(313 178)"/></g><g transform="translate(-241 -178)"><circle class="c" cx="1" cy="1" r="1" transform="translate(313 178)"/></g><g transform="translate(-229 -178)"><circle class="c" cx="1" cy="1" r="1" transform="translate(313 178)"/></g><g transform="translate(-217 -178)"><circle class="c" cx="1" cy="1" r="1" transform="translate(313 178)"/></g><g transform="translate(-205 -178)"><circle class="c" cx="1" cy="1" r="1" transform="translate(313 178)"/></g><g transform="translate(-193 -178)"><circle class="c" cx="1" cy="1" r="1" transform="translate(313 178)"/></g><g transform="translate(-181 -178)"><circle class="c" cx="1" cy="1" r="1" transform="translate(313 178)"/></g><g transform="translate(-169 -178)"><circle class="c" cx="1" cy="1" r="1" transform="translate(313 178)"/></g><g transform="translate(-157 -178)"><circle class="c" cx="1" cy="1" r="1" transform="translate(313 178)"/></g><g transform="translate(-145 -178)"><circle class="c" cx="1" cy="1" r="1" transform="translate(313 178)"/></g><g transform="translate(-133 -178)"><circle class="c" cx="1" cy="1" r="1" transform="translate(313 178)"/></g><g transform="translate(-121 -178)"><circle class="c" cx="1" cy="1" r="1" transform="translate(313 178)"/></g><g transform="translate(-109 -178)"><circle class="c" cx="1" cy="1" r="1" transform="translate(313 178)"/></g><g transform="translate(-97 -178)"><circle class="c" cx="1" cy="1" r="1" transform="translate(313 178)"/></g><g transform="translate(-85 -178)"><circle class="c" cx="1" cy="1" r="1" transform="translate(313 178)"/></g><g transform="translate(-73 -178)"><circle class="c" cx="1" cy="1" r="1" transform="translate(313 178)"/></g><g transform="translate(-61 -178)"><circle class="c" cx="1" cy="1" r="1" transform="translate(313 178)"/></g><g transform="translate(-49 -178)"><circle class="c" cx="1" cy="1" r="1" transform="translate(313 178)"/></g><g transform="translate(-37 -178)"><circle class="c" cx="1" cy="1" r="1" transform="translate(313 178)"/></g><g transform="translate(-25 -178)"><circle class="c" cx="1" cy="1" r="1" transform="translate(313 178)"/></g><g transform="translate(-13 -178)"><circle class="c" cx="1" cy="1" r="1" transform="translate(313 178)"/></g><g transform="translate(-1 -178)"><circle class="c" cx="1" cy="1" r="1" transform="translate(313 178)"/></g><g transform="translate(11 -178)"><circle class="c" cx="1" cy="1" r="1" transform="translate(313 178)"/></g><g transform="translate(23 -178)"><circle class="c" cx="1" cy="1" r="1" transform="translate(313 178)"/></g><g transform="translate(35 -178)"><circle class="c" cx="1" cy="1" r="1" transform="translate(313 178)"/></g><g transform="translate(47 -178)"><circle class="c" cx="1" cy="1" r="1" transform="translate(313 178)"/></g><g transform="translate(-313 -166)"><circle class="c" cx="1" cy="1" r="1" transform="translate(313 178)"/></g><g transform="translate(-301 -166)"><circle class="c" cx="1" cy="1" r="1" transform="translate(313 178)"/></g><g transform="translate(-289 -166)"><circle class="c" cx="1" cy="1" r="1" transform="translate(313 178)"/></g><g transform="translate(-277 -166)"><circle class="c" cx="1" cy="1" r="1" transform="translate(313 178)"/></g><g transform="translate(-265 -166)"><circle class="c" cx="1" cy="1" r="1" transform="translate(313 178)"/></g><g transform="translate(-253 -166)"><circle class="c" cx="1" cy="1" r="1" transform="translate(313 178)"/></g><g transform="translate(-241 -166)"><circle class="c" cx="1" cy="1" r="1" transform="translate(313 178)"/></g><g transform="translate(-229 -166)"><circle class="c" cx="1" cy="1" r="1" transform="translate(313 178)"/></g><g transform="translate(-217 -166)"><circle class="c" cx="1" cy="1" r="1" transform="translate(313 178)"/></g><g transform="translate(-205 -166)"><circle class="c" cx="1" cy="1" r="1" transform="translate(313 178)"/></g><g transform="translate(-193 -166)"><circle class="c" cx="1" cy="1" r="1" transform="translate(313 178)"/></g><g transform="translate(-181 -166)"><circle class="c" cx="1" cy="1" r="1" transform="translate(313 178)"/></g><g transform="translate(-169 -166)"><circle class="c" cx="1" cy="1" r="1" transform="translate(313 178)"/></g><g transform="translate(-157 -166)"><circle class="c" cx="1" cy="1" r="1" transform="translate(313 178)"/></g><g transform="translate(-145 -166)"><circle class="c" cx="1" cy="1" r="1" transform="translate(313 178)"/></g><g transform="translate(-133 -166)"><circle class="c" cx="1" cy="1" r="1" transform="translate(313 178)"/></g><g transform="translate(-121 -166)"><circle class="c" cx="1" cy="1" r="1" transform="translate(313 178)"/></g><g transform="translate(-109 -166)"><circle class="c" cx="1" cy="1" r="1" transform="translate(313 178)"/></g><g transform="translate(-97 -166)"><circle class="c" cx="1" cy="1" r="1" transform="translate(313 178)"/></g><g transform="translate(-85 -166)"><circle class="c" cx="1" cy="1" r="1" transform="translate(313 178)"/></g><g transform="translate(-73 -166)"><circle class="c" cx="1" cy="1" r="1" transform="translate(313 178)"/></g><g transform="translate(-61 -166)"><circle class="c" cx="1" cy="1" r="1" transform="translate(313 178)"/></g><g transform="translate(-49 -166)"><circle class="c" cx="1" cy="1" r="1" transform="translate(313 178)"/></g><g transform="translate(-37 -166)"><circle class="c" cx="1" cy="1" r="1" transform="translate(313 178)"/></g><g transform="translate(-25 -166)"><circle class="c" cx="1" cy="1" r="1" transform="translate(313 178)"/></g><g transform="translate(-13 -166)"><circle class="c" cx="1" cy="1" r="1" transform="translate(313 178)"/></g><g transform="translate(-1 -166)"><circle class="c" cx="1" cy="1" r="1" transform="translate(313 178)"/></g><g transform="translate(11 -166)"><circle class="c" cx="1" cy="1" r="1" transform="translate(313 178)"/></g><g transform="translate(23 -166)"><circle class="c" cx="1" cy="1" r="1" transform="translate(313 178)"/></g><g transform="translate(35 -166)"><circle class="c" cx="1" cy="1" r="1" transform="translate(313 178)"/></g><g transform="translate(47 -166)"><circle class="c" cx="1" cy="1" r="1" transform="translate(313 178)"/></g><g transform="translate(-313 -154)"><circle class="c" cx="1" cy="1" r="1" transform="translate(313 178)"/></g><g transform="translate(-301 -154)"><circle class="c" cx="1" cy="1" r="1" transform="translate(313 178)"/></g><g transform="translate(-289 -154)"><circle class="c" cx="1" cy="1" r="1" transform="translate(313 178)"/></g><g transform="translate(-277 -154)"><circle class="c" cx="1" cy="1" r="1" transform="translate(313 178)"/></g><g transform="translate(-265 -154)"><circle class="c" cx="1" cy="1" r="1" transform="translate(313 178)"/></g><g transform="translate(-253 -154)"><circle class="c" cx="1" cy="1" r="1" transform="translate(313 178)"/></g><g transform="translate(-241 -154)"><circle class="c" cx="1" cy="1" r="1" transform="translate(313 178)"/></g><g transform="translate(-229 -154)"><circle class="c" cx="1" cy="1" r="1" transform="translate(313 178)"/></g><g transform="translate(-217 -154)"><circle class="c" cx="1" cy="1" r="1" transform="translate(313 178)"/></g><g transform="translate(-205 -154)"><circle class="c" cx="1" cy="1" r="1" transform="translate(313 178)"/></g><g transform="translate(-193 -154)"><circle class="c" cx="1" cy="1" r="1" transform="translate(313 178)"/></g><g transform="translate(-181 -154)"><circle class="c" cx="1" cy="1" r="1" transform="translate(313 178)"/></g><g transform="translate(-169 -154)"><circle class="c" cx="1" cy="1" r="1" transform="translate(313 178)"/></g><g transform="translate(-157 -154)"><circle class="c" cx="1" cy="1" r="1" transform="translate(313 178)"/></g><g transform="translate(-145 -154)"><circle class="c" cx="1" cy="1" r="1" transform="translate(313 178)"/></g><g transform="translate(-133 -154)"><circle class="c" cx="1" cy="1" r="1" transform="translate(313 178)"/></g><g transform="translate(-121 -154)"><circle class="c" cx="1" cy="1" r="1" transform="translate(313 178)"/></g><g transform="translate(-109 -154)"><circle class="c" cx="1" cy="1" r="1" transform="translate(313 178)"/></g><g transform="translate(-97 -154)"><circle class="c" cx="1" cy="1" r="1" transform="translate(313 178)"/></g><g transform="translate(-85 -154)"><circle class="c" cx="1" cy="1" r="1" transform="translate(313 178)"/></g><g transform="translate(-73 -154)"><circle class="c" cx="1" cy="1" r="1" transform="translate(313 178)"/></g><g transform="translate(-61 -154)"><circle class="c" cx="1" cy="1" r="1" transform="translate(313 178)"/></g><g transform="translate(-49 -154)"><circle class="c" cx="1" cy="1" r="1" transform="translate(313 178)"/></g><g transform="translate(-37 -154)"><circle class="c" cx="1" cy="1" r="1" transform="translate(313 178)"/></g><g transform="translate(-25 -154)"><circle class="c" cx="1" cy="1" r="1" transform="translate(313 178)"/></g><g transform="translate(-13 -154)"><circle class="c" cx="1" cy="1" r="1" transform="translate(313 178)"/></g><g transform="translate(-1 -154)"><circle class="c" cx="1" cy="1" r="1" transform="translate(313 178)"/></g><g transform="translate(11 -154)"><circle class="c" cx="1" cy="1" r="1" transform="translate(313 178)"/></g><g transform="translate(23 -154)"><circle class="c" cx="1" cy="1" r="1" transform="translate(313 178)"/></g><g transform="translate(35 -154)"><circle class="c" cx="1" cy="1" r="1" transform="translate(313 178)"/></g><g transform="translate(47 -154)"><circle class="c" cx="1" cy="1" r="1" transform="translate(313 178)"/></g><g transform="translate(-313 -142)"><circle class="c" cx="1" cy="1" r="1" transform="translate(313 178)"/></g><g transform="translate(-301 -142)"><circle class="c" cx="1" cy="1" r="1" transform="translate(313 178)"/></g><g transform="translate(-289 -142)"><circle class="c" cx="1" cy="1" r="1" transform="translate(313 178)"/></g><g transform="translate(-277 -142)"><circle class="c" cx="1" cy="1" r="1" transform="translate(313 178)"/></g><g transform="translate(-265 -142)"><circle class="c" cx="1" cy="1" r="1" transform="translate(313 178)"/></g><g transform="translate(-253 -142)"><circle class="c" cx="1" cy="1" r="1" transform="translate(313 178)"/></g><g transform="translate(-241 -142)"><circle class="c" cx="1" cy="1" r="1" transform="translate(313 178)"/></g><g transform="translate(-229 -142)"><circle class="c" cx="1" cy="1" r="1" transform="translate(313 178)"/></g><g transform="translate(-217 -142)"><circle class="c" cx="1" cy="1" r="1" transform="translate(313 178)"/></g><g transform="translate(-205 -142)"><circle class="c" cx="1" cy="1" r="1" transform="translate(313 178)"/></g><g transform="translate(-193 -142)"><circle class="c" cx="1" cy="1" r="1" transform="translate(313 178)"/></g><g transform="translate(-181 -142)"><circle class="c" cx="1" cy="1" r="1" transform="translate(313 178)"/></g><g transform="translate(-169 -142)"><circle class="c" cx="1" cy="1" r="1" transform="translate(313 178)"/></g><g transform="translate(-157 -142)"><circle class="c" cx="1" cy="1" r="1" transform="translate(313 178)"/></g><g transform="translate(-145 -142)"><circle class="c" cx="1" cy="1" r="1" transform="translate(313 178)"/></g><g transform="translate(-133 -142)"><circle class="c" cx="1" cy="1" r="1" transform="translate(313 178)"/></g><g transform="translate(-121 -142)"><circle class="c" cx="1" cy="1" r="1" transform="translate(313 178)"/></g><g transform="translate(-109 -142)"><circle class="c" cx="1" cy="1" r="1" transform="translate(313 178)"/></g><g transform="translate(-97 -142)"><circle class="c" cx="1" cy="1" r="1" transform="translate(313 178)"/></g><g transform="translate(-85 -142)"><circle class="c" cx="1" cy="1" r="1" transform="translate(313 178)"/></g><g transform="translate(-73 -142)"><circle class="c" cx="1" cy="1" r="1" transform="translate(313 178)"/></g><g transform="translate(-61 -142)"><circle class="c" cx="1" cy="1" r="1" transform="translate(313 178)"/></g><g transform="translate(-49 -142)"><circle class="c" cx="1" cy="1" r="1" transform="translate(313 178)"/></g><g transform="translate(-37 -142)"><circle class="c" cx="1" cy="1" r="1" transform="translate(313 178)"/></g><g transform="translate(-25 -142)"><circle class="c" cx="1" cy="1" r="1" transform="translate(313 178)"/></g><g transform="translate(-13 -142)"><circle class="c" cx="1" cy="1" r="1" transform="translate(313 178)"/></g><g transform="translate(-1 -142)"><circle class="c" cx="1" cy="1" r="1" transform="translate(313 178)"/></g><g transform="translate(11 -142)"><circle class="c" cx="1" cy="1" r="1" transform="translate(313 178)"/></g><g transform="translate(23 -142)"><circle class="c" cx="1" cy="1" r="1" transform="translate(313 178)"/></g><g transform="translate(35 -142)"><circle class="c" cx="1" cy="1" r="1" transform="translate(313 178)"/></g><g transform="translate(47 -142)"><circle class="c" cx="1" cy="1" r="1" transform="translate(313 178)"/></g><g transform="translate(-313 -130)"><circle class="c" cx="1" cy="1" r="1" transform="translate(313 178)"/></g><g transform="translate(-301 -130)"><circle class="c" cx="1" cy="1" r="1" transform="translate(313 178)"/></g><g transform="translate(-289 -130)"><circle class="c" cx="1" cy="1" r="1" transform="translate(313 178)"/></g><g transform="translate(-277 -130)"><circle class="c" cx="1" cy="1" r="1" transform="translate(313 178)"/></g><g transform="translate(-265 -130)"><circle class="c" cx="1" cy="1" r="1" transform="translate(313 178)"/></g><g transform="translate(-253 -130)"><circle class="c" cx="1" cy="1" r="1" transform="translate(313 178)"/></g><g transform="translate(-241 -130)"><circle class="c" cx="1" cy="1" r="1" transform="translate(313 178)"/></g><g transform="translate(-229 -130)"><circle class="c" cx="1" cy="1" r="1" transform="translate(313 178)"/></g><g transform="translate(-217 -130)"><circle class="c" cx="1" cy="1" r="1" transform="translate(313 178)"/></g><g transform="translate(-205 -130)"><circle class="c" cx="1" cy="1" r="1" transform="translate(313 178)"/></g><g transform="translate(-193 -130)"><circle class="c" cx="1" cy="1" r="1" transform="translate(313 178)"/></g><g transform="translate(-181 -130)"><circle class="c" cx="1" cy="1" r="1" transform="translate(313 178)"/></g><g transform="translate(-169 -130)"><circle class="c" cx="1" cy="1" r="1" transform="translate(313 178)"/></g><g transform="translate(-157 -130)"><circle class="c" cx="1" cy="1" r="1" transform="translate(313 178)"/></g><g transform="translate(-145 -130)"><circle class="c" cx="1" cy="1" r="1" transform="translate(313 178)"/></g><g transform="translate(-133 -130)"><circle class="c" cx="1" cy="1" r="1" transform="translate(313 178)"/></g><g transform="translate(-121 -130)"><circle class="c" cx="1" cy="1" r="1" transform="translate(313 178)"/></g><g transform="translate(-109 -130)"><circle class="c" cx="1" cy="1" r="1" transform="translate(313 178)"/></g><g transform="translate(-97 -130)"><circle class="c" cx="1" cy="1" r="1" transform="translate(313 178)"/></g><g transform="translate(-85 -130)"><circle class="c" cx="1" cy="1" r="1" transform="translate(313 178)"/></g><g transform="translate(-73 -130)"><circle class="c" cx="1" cy="1" r="1" transform="translate(313 178)"/></g><g transform="translate(-61 -130)"><circle class="c" cx="1" cy="1" r="1" transform="translate(313 178)"/></g><g transform="translate(-49 -130)"><circle class="c" cx="1" cy="1" r="1" transform="translate(313 178)"/></g><g transform="translate(-37 -130)"><circle class="c" cx="1" cy="1" r="1" transform="translate(313 178)"/></g><g transform="translate(-25 -130)"><circle class="c" cx="1" cy="1" r="1" transform="translate(313 178)"/></g><g transform="translate(-13 -130)"><circle class="c" cx="1" cy="1" r="1" transform="translate(313 178)"/></g><g transform="translate(-1 -130)"><circle class="c" cx="1" cy="1" r="1" transform="translate(313 178)"/></g><g transform="translate(11 -130)"><circle class="c" cx="1" cy="1" r="1" transform="translate(313 178)"/></g><g transform="translate(23 -130)"><circle class="c" cx="1" cy="1" r="1" transform="translate(313 178)"/></g><g transform="translate(35 -130)"><circle class="c" cx="1" cy="1" r="1" transform="translate(313 178)"/></g><g transform="translate(47 -130)"><circle class="c" cx="1" cy="1" r="1" transform="translate(313 178)"/></g><g transform="translate(-313 -118)"><circle class="c" cx="1" cy="1" r="1" transform="translate(313 178)"/></g><g transform="translate(-301 -118)"><circle class="c" cx="1" cy="1" r="1" transform="translate(313 178)"/></g><g transform="translate(-289 -118)"><circle class="c" cx="1" cy="1" r="1" transform="translate(313 178)"/></g><g transform="translate(-277 -118)"><circle class="c" cx="1" cy="1" r="1" transform="translate(313 178)"/></g><g transform="translate(-265 -118)"><circle class="c" cx="1" cy="1" r="1" transform="translate(313 178)"/></g><g transform="translate(-253 -118)"><circle class="c" cx="1" cy="1" r="1" transform="translate(313 178)"/></g><g transform="translate(-241 -118)"><circle class="c" cx="1" cy="1" r="1" transform="translate(313 178)"/></g><g transform="translate(-229 -118)"><circle class="c" cx="1" cy="1" r="1" transform="translate(313 178)"/></g><g transform="translate(-217 -118)"><circle class="c" cx="1" cy="1" r="1" transform="translate(313 178)"/></g><g transform="translate(-205 -118)"><circle class="c" cx="1" cy="1" r="1" transform="translate(313 178)"/></g><g transform="translate(-193 -118)"><circle class="c" cx="1" cy="1" r="1" transform="translate(313 178)"/></g><g transform="translate(-181 -118)"><circle class="c" cx="1" cy="1" r="1" transform="translate(313 178)"/></g><g transform="translate(-169 -118)"><circle class="c" cx="1" cy="1" r="1" transform="translate(313 178)"/></g><g transform="translate(-157 -118)"><circle class="c" cx="1" cy="1" r="1" transform="translate(313 178)"/></g><g transform="translate(-145 -118)"><circle class="c" cx="1" cy="1" r="1" transform="translate(313 178)"/></g><g transform="translate(-133 -118)"><circle class="c" cx="1" cy="1" r="1" transform="translate(313 178)"/></g><g transform="translate(-121 -118)"><circle class="c" cx="1" cy="1" r="1" transform="translate(313 178)"/></g><g transform="translate(-109 -118)"><circle class="c" cx="1" cy="1" r="1" transform="translate(313 178)"/></g><g transform="translate(-97 -118)"><circle class="c" cx="1" cy="1" r="1" transform="translate(313 178)"/></g><g transform="translate(-85 -118)"><circle class="c" cx="1" cy="1" r="1" transform="translate(313 178)"/></g><g transform="translate(-73 -118)"><circle class="c" cx="1" cy="1" r="1" transform="translate(313 178)"/></g><g transform="translate(-61 -118)"><circle class="c" cx="1" cy="1" r="1" transform="translate(313 178)"/></g><g transform="translate(-49 -118)"><circle class="c" cx="1" cy="1" r="1" transform="translate(313 178)"/></g><g transform="translate(-37 -118)"><circle class="c" cx="1" cy="1" r="1" transform="translate(313 178)"/></g><g transform="translate(-25 -118)"><circle class="c" cx="1" cy="1" r="1" transform="translate(313 178)"/></g><g transform="translate(-13 -118)"><circle class="c" cx="1" cy="1" r="1" transform="translate(313 178)"/></g><g transform="translate(-1 -118)"><circle class="c" cx="1" cy="1" r="1" transform="translate(313 178)"/></g><g transform="translate(11 -118)"><circle class="c" cx="1" cy="1" r="1" transform="translate(313 178)"/></g><g transform="translate(23 -118)"><circle class="c" cx="1" cy="1" r="1" transform="translate(313 178)"/></g><g transform="translate(35 -118)"><circle class="c" cx="1" cy="1" r="1" transform="translate(313 178)"/></g><g transform="translate(47 -118)"><circle class="c" cx="1" cy="1" r="1" transform="translate(313 178)"/></g></g></svg>