<svg xmlns="http://www.w3.org/2000/svg" xmlns:xlink="http://www.w3.org/1999/xlink" width="78" height="183" viewBox="0 0 78 183"><defs><style>.a{fill:none;}.b{clip-path:url(#a);}.c{fill:rgba(85,167,197,0.5);}</style><clipPath id="a"><rect class="a" width="78" height="183"/></clipPath></defs><g class="b"><g transform="translate(-313 -178)"><circle class="c" cx="1" cy="1" r="1" transform="translate(313 178)"/></g><g transform="translate(-301 -178)"><circle class="c" cx="1" cy="1" r="1" transform="translate(313 178)"/></g><g transform="translate(-289 -178)"><circle class="c" cx="1" cy="1" r="1" transform="translate(313 178)"/></g><g transform="translate(-277 -178)"><circle class="c" cx="1" cy="1" r="1" transform="translate(313 178)"/></g><g transform="translate(-265 -178)"><circle class="c" cx="1" cy="1" r="1" transform="translate(313 178)"/></g><g transform="translate(-253 -178)"><circle class="c" cx="1" cy="1" r="1" transform="translate(313 178)"/></g><g transform="translate(-241 -178)"><circle class="c" cx="1" cy="1" r="1" transform="translate(313 178)"/></g><g transform="translate(-313 -166)"><circle class="c" cx="1" cy="1" r="1" transform="translate(313 178)"/></g><g transform="translate(-301 -166)"><circle class="c" cx="1" cy="1" r="1" transform="translate(313 178)"/></g><g transform="translate(-289 -166)"><circle class="c" cx="1" cy="1" r="1" transform="translate(313 178)"/></g><g transform="translate(-277 -166)"><circle class="c" cx="1" cy="1" r="1" transform="translate(313 178)"/></g><g transform="translate(-265 -166)"><circle class="c" cx="1" cy="1" r="1" transform="translate(313 178)"/></g><g transform="translate(-253 -166)"><circle class="c" cx="1" cy="1" r="1" transform="translate(313 178)"/></g><g transform="translate(-241 -166)"><circle class="c" cx="1" cy="1" r="1" transform="translate(313 178)"/></g><g transform="translate(-313 -154)"><circle class="c" cx="1" cy="1" r="1" transform="translate(313 178)"/></g><g transform="translate(-301 -154)"><circle class="c" cx="1" cy="1" r="1" transform="translate(313 178)"/></g><g transform="translate(-289 -154)"><circle class="c" cx="1" cy="1" r="1" transform="translate(313 178)"/></g><g transform="translate(-277 -154)"><circle class="c" cx="1" cy="1" r="1" transform="translate(313 178)"/></g><g transform="translate(-265 -154)"><circle class="c" cx="1" cy="1" r="1" transform="translate(313 178)"/></g><g transform="translate(-253 -154)"><circle class="c" cx="1" cy="1" r="1" transform="translate(313 178)"/></g><g transform="translate(-241 -154)"><circle class="c" cx="1" cy="1" r="1" transform="translate(313 178)"/></g><g transform="translate(-313 -142)"><circle class="c" cx="1" cy="1" r="1" transform="translate(313 178)"/></g><g transform="translate(-301 -142)"><circle class="c" cx="1" cy="1" r="1" transform="translate(313 178)"/></g><g transform="translate(-289 -142)"><circle class="c" cx="1" cy="1" r="1" transform="translate(313 178)"/></g><g transform="translate(-277 -142)"><circle class="c" cx="1" cy="1" r="1" transform="translate(313 178)"/></g><g transform="translate(-265 -142)"><circle class="c" cx="1" cy="1" r="1" transform="translate(313 178)"/></g><g transform="translate(-253 -142)"><circle class="c" cx="1" cy="1" r="1" transform="translate(313 178)"/></g><g transform="translate(-241 -142)"><circle class="c" cx="1" cy="1" r="1" transform="translate(313 178)"/></g><g transform="translate(-313 -130)"><circle class="c" cx="1" cy="1" r="1" transform="translate(313 178)"/></g><g transform="translate(-301 -130)"><circle class="c" cx="1" cy="1" r="1" transform="translate(313 178)"/></g><g transform="translate(-289 -130)"><circle class="c" cx="1" cy="1" r="1" transform="translate(313 178)"/></g><g transform="translate(-277 -130)"><circle class="c" cx="1" cy="1" r="1" transform="translate(313 178)"/></g><g transform="translate(-265 -130)"><circle class="c" cx="1" cy="1" r="1" transform="translate(313 178)"/></g><g transform="translate(-253 -130)"><circle class="c" cx="1" cy="1" r="1" transform="translate(313 178)"/></g><g transform="translate(-241 -130)"><circle class="c" cx="1" cy="1" r="1" transform="translate(313 178)"/></g><g transform="translate(-313 -118)"><circle class="c" cx="1" cy="1" r="1" transform="translate(313 178)"/></g><g transform="translate(-301 -118)"><circle class="c" cx="1" cy="1" r="1" transform="translate(313 178)"/></g><g transform="translate(-289 -118)"><circle class="c" cx="1" cy="1" r="1" transform="translate(313 178)"/></g><g transform="translate(-277 -118)"><circle class="c" cx="1" cy="1" r="1" transform="translate(313 178)"/></g><g transform="translate(-265 -118)"><circle class="c" cx="1" cy="1" r="1" transform="translate(313 178)"/></g><g transform="translate(-253 -118)"><circle class="c" cx="1" cy="1" r="1" transform="translate(313 178)"/></g><g transform="translate(-241 -118)"><circle class="c" cx="1" cy="1" r="1" transform="translate(313 178)"/></g><g transform="translate(-313 -106)"><circle class="c" cx="1" cy="1" r="1" transform="translate(313 178)"/></g><g transform="translate(-301 -106)"><circle class="c" cx="1" cy="1" r="1" transform="translate(313 178)"/></g><g transform="translate(-289 -106)"><circle class="c" cx="1" cy="1" r="1" transform="translate(313 178)"/></g><g transform="translate(-277 -106)"><circle class="c" cx="1" cy="1" r="1" transform="translate(313 178)"/></g><g transform="translate(-265 -106)"><circle class="c" cx="1" cy="1" r="1" transform="translate(313 178)"/></g><g transform="translate(-253 -106)"><circle class="c" cx="1" cy="1" r="1" transform="translate(313 178)"/></g><g transform="translate(-241 -106)"><circle class="c" cx="1" cy="1" r="1" transform="translate(313 178)"/></g><g transform="translate(-313 -94)"><circle class="c" cx="1" cy="1" r="1" transform="translate(313 178)"/></g><g transform="translate(-301 -94)"><circle class="c" cx="1" cy="1" r="1" transform="translate(313 178)"/></g><g transform="translate(-289 -94)"><circle class="c" cx="1" cy="1" r="1" transform="translate(313 178)"/></g><g transform="translate(-277 -94)"><circle class="c" cx="1" cy="1" r="1" transform="translate(313 178)"/></g><g transform="translate(-265 -94)"><circle class="c" cx="1" cy="1" r="1" transform="translate(313 178)"/></g><g transform="translate(-253 -94)"><circle class="c" cx="1" cy="1" r="1" transform="translate(313 178)"/></g><g transform="translate(-241 -94)"><circle class="c" cx="1" cy="1" r="1" transform="translate(313 178)"/></g><g transform="translate(-313 -82)"><circle class="c" cx="1" cy="1" r="1" transform="translate(313 178)"/></g><g transform="translate(-301 -82)"><circle class="c" cx="1" cy="1" r="1" transform="translate(313 178)"/></g><g transform="translate(-289 -82)"><circle class="c" cx="1" cy="1" r="1" transform="translate(313 178)"/></g><g transform="translate(-277 -82)"><circle class="c" cx="1" cy="1" r="1" transform="translate(313 178)"/></g><g transform="translate(-265 -82)"><circle class="c" cx="1" cy="1" r="1" transform="translate(313 178)"/></g><g transform="translate(-253 -82)"><circle class="c" cx="1" cy="1" r="1" transform="translate(313 178)"/></g><g transform="translate(-241 -82)"><circle class="c" cx="1" cy="1" r="1" transform="translate(313 178)"/></g><g transform="translate(-313 -70)"><circle class="c" cx="1" cy="1" r="1" transform="translate(313 178)"/></g><g transform="translate(-301 -70)"><circle class="c" cx="1" cy="1" r="1" transform="translate(313 178)"/></g><g transform="translate(-289 -70)"><circle class="c" cx="1" cy="1" r="1" transform="translate(313 178)"/></g><g transform="translate(-277 -70)"><circle class="c" cx="1" cy="1" r="1" transform="translate(313 178)"/></g><g transform="translate(-265 -70)"><circle class="c" cx="1" cy="1" r="1" transform="translate(313 178)"/></g><g transform="translate(-253 -70)"><circle class="c" cx="1" cy="1" r="1" transform="translate(313 178)"/></g><g transform="translate(-241 -70)"><circle class="c" cx="1" cy="1" r="1" transform="translate(313 178)"/></g><g transform="translate(-313 -58)"><circle class="c" cx="1" cy="1" r="1" transform="translate(313 178)"/></g><g transform="translate(-301 -58)"><circle class="c" cx="1" cy="1" r="1" transform="translate(313 178)"/></g><g transform="translate(-289 -58)"><circle class="c" cx="1" cy="1" r="1" transform="translate(313 178)"/></g><g transform="translate(-277 -58)"><circle class="c" cx="1" cy="1" r="1" transform="translate(313 178)"/></g><g transform="translate(-265 -58)"><circle class="c" cx="1" cy="1" r="1" transform="translate(313 178)"/></g><g transform="translate(-253 -58)"><circle class="c" cx="1" cy="1" r="1" transform="translate(313 178)"/></g><g transform="translate(-241 -58)"><circle class="c" cx="1" cy="1" r="1" transform="translate(313 178)"/></g><g transform="translate(-313 -46)"><circle class="c" cx="1" cy="1" r="1" transform="translate(313 178)"/></g><g transform="translate(-301 -46)"><circle class="c" cx="1" cy="1" r="1" transform="translate(313 178)"/></g><g transform="translate(-289 -46)"><circle class="c" cx="1" cy="1" r="1" transform="translate(313 178)"/></g><g transform="translate(-277 -46)"><circle class="c" cx="1" cy="1" r="1" transform="translate(313 178)"/></g><g transform="translate(-265 -46)"><circle class="c" cx="1" cy="1" r="1" transform="translate(313 178)"/></g><g transform="translate(-253 -46)"><circle class="c" cx="1" cy="1" r="1" transform="translate(313 178)"/></g><g transform="translate(-241 -46)"><circle class="c" cx="1" cy="1" r="1" transform="translate(313 178)"/></g><g transform="translate(-313 -34)"><circle class="c" cx="1" cy="1" r="1" transform="translate(313 178)"/></g><g transform="translate(-301 -34)"><circle class="c" cx="1" cy="1" r="1" transform="translate(313 178)"/></g><g transform="translate(-289 -34)"><circle class="c" cx="1" cy="1" r="1" transform="translate(313 178)"/></g><g transform="translate(-277 -34)"><circle class="c" cx="1" cy="1" r="1" transform="translate(313 178)"/></g><g transform="translate(-265 -34)"><circle class="c" cx="1" cy="1" r="1" transform="translate(313 178)"/></g><g transform="translate(-253 -34)"><circle class="c" cx="1" cy="1" r="1" transform="translate(313 178)"/></g><g transform="translate(-241 -34)"><circle class="c" cx="1" cy="1" r="1" transform="translate(313 178)"/></g><g transform="translate(-313 -22)"><circle class="c" cx="1" cy="1" r="1" transform="translate(313 178)"/></g><g transform="translate(-301 -22)"><circle class="c" cx="1" cy="1" r="1" transform="translate(313 178)"/></g><g transform="translate(-289 -22)"><circle class="c" cx="1" cy="1" r="1" transform="translate(313 178)"/></g><g transform="translate(-277 -22)"><circle class="c" cx="1" cy="1" r="1" transform="translate(313 178)"/></g><g transform="translate(-265 -22)"><circle class="c" cx="1" cy="1" r="1" transform="translate(313 178)"/></g><g transform="translate(-253 -22)"><circle class="c" cx="1" cy="1" r="1" transform="translate(313 178)"/></g><g transform="translate(-241 -22)"><circle class="c" cx="1" cy="1" r="1" transform="translate(313 178)"/></g><g transform="translate(-313 -10)"><circle class="c" cx="1" cy="1" r="1" transform="translate(313 178)"/></g><g transform="translate(-301 -10)"><circle class="c" cx="1" cy="1" r="1" transform="translate(313 178)"/></g><g transform="translate(-289 -10)"><circle class="c" cx="1" cy="1" r="1" transform="translate(313 178)"/></g><g transform="translate(-277 -10)"><circle class="c" cx="1" cy="1" r="1" transform="translate(313 178)"/></g><g transform="translate(-265 -10)"><circle class="c" cx="1" cy="1" r="1" transform="translate(313 178)"/></g><g transform="translate(-253 -10)"><circle class="c" cx="1" cy="1" r="1" transform="translate(313 178)"/></g><g transform="translate(-241 -10)"><circle class="c" cx="1" cy="1" r="1" transform="translate(313 178)"/></g><g transform="translate(-313 2)"><circle class="c" cx="1" cy="1" r="1" transform="translate(313 178)"/></g><g transform="translate(-301 2)"><circle class="c" cx="1" cy="1" r="1" transform="translate(313 178)"/></g><g transform="translate(-289 2)"><circle class="c" cx="1" cy="1" r="1" transform="translate(313 178)"/></g><g transform="translate(-277 2)"><circle class="c" cx="1" cy="1" r="1" transform="translate(313 178)"/></g><g transform="translate(-265 2)"><circle class="c" cx="1" cy="1" r="1" transform="translate(313 178)"/></g><g transform="translate(-253 2)"><circle class="c" cx="1" cy="1" r="1" transform="translate(313 178)"/></g><g transform="translate(-241 2)"><circle class="c" cx="1" cy="1" r="1" transform="translate(313 178)"/></g></g></svg>