<svg xmlns="http://www.w3.org/2000/svg" width="25" height="25" viewBox="0 0 25 25"><defs><style>.a{fill:none;}.b{fill:#d5d5d5;}</style></defs><path class="a" d="M0,0H25V25H0Z"/><path class="b" d="M7.3,18.8a2.1,2.1,0,1,0,2.1,2.1A2.1,2.1,0,0,0,7.3,18.8ZM1,2V4.1H3.1l3.78,7.969L5.462,14.642A2.03,2.03,0,0,0,5.2,15.65a2.106,2.106,0,0,0,2.1,2.1H19.9v-2.1H7.741a.26.26,0,0,1-.262-.262l.031-.126.945-1.711h7.823a2.09,2.09,0,0,0,1.837-1.081l3.759-6.814A1.026,1.026,0,0,0,22,5.15,1.053,1.053,0,0,0,20.95,4.1H5.42L4.433,2H1ZM17.8,18.8a2.1,2.1,0,1,0,2.1,2.1A2.1,2.1,0,0,0,17.8,18.8Z" transform="translate(0 0)"/></svg>