<svg xmlns="http://www.w3.org/2000/svg" width="15" height="12.192" viewBox="0 0 15 12.192"><defs><style>.a{fill:#01b5f6;}</style></defs><path class="a" d="M14.971,3.7a6.25,6.25,0,0,1-1.766.484,3.1,3.1,0,0,0,1.352-1.7,6.352,6.352,0,0,1-1.954.74,3.075,3.075,0,0,0-5.24,2.8,8.711,8.711,0,0,1-6.337-3.2A3.014,3.014,0,0,0,.609,4.365a3.075,3.075,0,0,0,1.368,2.56A3.065,3.065,0,0,1,.584,6.54v.038A3.077,3.077,0,0,0,3.05,9.595a3.122,3.122,0,0,1-1.382.053,3.085,3.085,0,0,0,2.878,2.136A6.167,6.167,0,0,1,.731,13.1,6.527,6.527,0,0,1,0,13.057a8.747,8.747,0,0,0,4.723,1.381A8.686,8.686,0,0,0,13.472,5.7c0-.131,0-.263-.009-.394A6.209,6.209,0,0,0,15,3.711Z" transform="translate(0 -2.246)"/></svg>